<svg xmlns="http://www.w3.org/2000/svg"  viewBox="0 0 48 48" width="48px" height="48px"><path fill="#ffe082" d="M47.657,19.006l-0.004,0.004c-0.295-0.843-1.685-3.867-3.602-6.009	c-2.481-2.773-5.319-3.844-5.319-3.844l0.003,0.003c-4.5-2.116-13.656,1.462-20.881,8.688c-7.321,7.321-10.81,15.907-8.497,20.216	l-0.075-0.072c-0.097,0.042,2.692,4.533,4.604,6.182c2.946,2.541,5.437,3.332,5.437,3.332l-0.034-0.032	c4.645,1.86,12.911-1.524,19.89-8.503C46.194,31.956,49.581,23.637,47.657,19.006z M31.919,30.986	c-6.849,6.849-13.9,10.902-15.749,9.054s2.205-8.9,9.054-15.749c6.849-6.849,13.9-10.902,15.749-9.054S38.768,24.137,31.919,30.986z"/><path fill="none" stroke="#18193f" stroke-linecap="round" stroke-linejoin="round" stroke-width="3" d="M23.41,6.862	c5.34-2.667,10.291-3.171,12.645-0.816c3.768,3.768-0.541,13.429-8.558,21.446S9.927,38.955,6.159,35.187	s-0.323-13.321,7.695-21.339c1.347-1.347,2.761-2.568,4.201-3.649"/><path fill="none" stroke="#18193f" stroke-linecap="round" stroke-linejoin="round" stroke-width="3" d="M13.571,30.622	c1.527-3.297,3.989-6.806,7.221-10.037c5.512-5.512,11.828-8.784,16.529-9"/><path fill="none" stroke="#18193f" stroke-linecap="round" stroke-linejoin="round" stroke-width="3" d="M18,43.981	c-1.026-0.016-1.964-0.191-2.786-0.532"/><path fill="none" stroke="#18193f" stroke-linecap="round" stroke-linejoin="round" stroke-width="3" d="M43.657,15.006	c1.924,4.631-1.463,12.95-8.478,19.965c-3.384,3.384-7.072,5.924-10.502,7.43"/><path fill="none" stroke="#18193f" stroke-width="3" d="M34.732,5.157c0,0,2.838,1.071,5.319,3.844	c2.236,2.499,3.759,6.206,3.659,6.241"/><path fill="none" stroke="#18193f" stroke-width="3" d="M15.323,43.506c0,0-2.491-0.791-5.437-3.332	c-1.912-1.649-4.701-6.14-4.604-6.182"/><path fill="#18193f" d="M23.5,39.253c-0.828,0-1.5-0.671-1.5-1.5v-1.622c0-0.604,0.265-1.178,0.728-1.577	c0.522-0.452,1.248-0.647,1.991-0.537c0.522,0.077,0.88,0.137,1.281,0.21v-0.872c0-0.639,0.256-1.238,0.72-1.688	c0.479-0.465,1.144-0.727,1.828-0.696C29.144,30.99,29.513,31,30,31.005V29.5c0-1.378,1.125-2.5,2.509-2.5h1.292	c-0.037-0.368-0.073-0.683-0.121-1.11l-0.024-0.222c-0.083-0.726,0.131-1.435,0.586-1.944C34.658,23.257,35.228,23,35.847,23h0.637	c-0.082-0.4-0.146-0.773-0.217-1.298c-0.111-0.821,0.464-1.577,1.285-1.688c0.818-0.107,1.577,0.464,1.688,1.285	c0.101,0.74,0.177,1.099,0.354,1.864c0.172,0.742,0.019,1.485-0.419,2.036C38.769,25.708,38.159,26,37.501,26h-0.79	c0.049,0.438,0.087,0.805,0.139,1.363c0.062,0.688-0.164,1.367-0.619,1.865C35.783,29.719,35.142,30,34.471,30H33v1.5	c0,0.672-0.263,1.304-0.739,1.779c-0.472,0.472-1.054,0.72-1.765,0.729C29.883,34.007,29.499,34,29,33.986v1.159	c0,0.66-0.287,1.276-0.788,1.692c-0.534,0.444-1.256,0.62-1.988,0.483l-0.166-0.031c-0.412-0.078-0.717-0.135-1.058-0.192v0.655	C25,38.582,24.328,39.253,23.5,39.253z"/><path fill="#18193f" d="M10.504,28.004c-0.827,0-1.498-0.669-1.5-1.497c-0.002-0.797-0.006-1.198-0.015-2.002	c-0.015-1.37,1.026-2.498,2.368-2.568c0.53-0.027,0.87-0.048,1.283-0.076c-0.051-0.641-0.083-1.061-0.129-1.754	c-0.093-1.382,0.83-2.603,2.102-2.777c0.545-0.075,0.907-0.121,1.396-0.16c-0.022-0.63-0.016-1.049,0.019-1.722	c0.033-0.64,0.319-1.232,0.805-1.668c0.505-0.453,1.192-0.697,1.882-0.652c0.738,0.041,1.186,0.083,1.856,0.163	c0.029-0.325,0.059-0.611,0.099-1.011c0.07-0.69,0.375-1.235,0.867-1.619c0.546-0.425,1.277-0.608,2.003-0.499l0.149,0.022	c0.518,0.077,0.876,0.13,1.31,0.186c0.003-0.296,0.005-0.586,0.006-0.996c0.002-0.827,0.674-1.496,1.5-1.496	c0.001,0,0.003,0,0.004,0c0.828,0.002,1.498,0.675,1.496,1.504c-0.002,0.75-0.006,1.107-0.015,1.811	c-0.008,0.627-0.285,1.228-0.762,1.647c-0.521,0.458-1.239,0.67-1.967,0.585c-0.679-0.08-1.094-0.138-1.669-0.222	c-0.03,0.315-0.056,0.597-0.088,0.998c-0.05,0.612-0.346,1.166-0.833,1.562c-0.548,0.445-1.295,0.648-2.036,0.557	c-0.698-0.084-1.1-0.13-1.634-0.168c-0.011,0.403-0.003,0.741,0.022,1.304c0.066,1.39-0.967,2.589-2.301,2.672	c-0.505,0.031-0.813,0.06-1.195,0.108c0.043,0.624,0.076,1.039,0.131,1.73c0.063,0.798-0.162,1.506-0.612,2.028	c-0.42,0.488-0.997,0.779-1.625,0.822l-0.209,0.014c-0.466,0.032-0.794,0.054-1.218,0.078c0.005,0.553,0.008,0.943,0.01,1.593	c0.002,0.828-0.668,1.501-1.496,1.503C10.506,28.004,10.505,28.004,10.504,28.004z"/></svg>